<svg width="40" height="40" viewBox="0 0 40 40" fill="none" xmlns="http://www.w3.org/2000/svg">
<rect width="40" height="40" fill="#010203"/>
<mask id="path-1-inside-1" fill="white">
<path d="M10 25.5L30 25.5V26.5L10 26.5V25.5Z"/>
</mask>
<path d="M10 25.5L30 25.5V26.5L10 26.5V25.5Z" fill="white"/>
<path d="M10 25.5L30 25.5V26.5L10 26.5V25.5Z" fill="url(#paint0_linear)"/>
<path d="M10 25.5L10 24.5L9 24.5V25.5H10ZM30 25.5H31V24.5L30 24.5V25.5ZM30 26.5V27.5L31 27.5V26.5H30ZM10 26.5H9V27.5L10 27.5L10 26.5ZM10 26.5L30 26.5V24.5L10 24.5L10 26.5ZM29 25.5V26.5H31V25.5H29ZM30 25.5L10 25.5L10 27.5L30 27.5V25.5ZM11 26.5V25.5H9V26.5H11Z" fill="white" mask="url(#path-1-inside-1)"/>
<path d="M10 25.5L10 24.5L9 24.5V25.5H10ZM30 25.5H31V24.5L30 24.5V25.5ZM30 26.5V27.5L31 27.5V26.5H30ZM10 26.5H9V27.5L10 27.5L10 26.5ZM10 26.5L30 26.5V24.5L10 24.5L10 26.5ZM29 25.5V26.5H31V25.5H29ZM30 25.5L10 25.5L10 27.5L30 27.5V25.5ZM11 26.5V25.5H9V26.5H11Z" fill="url(#paint1_linear)" mask="url(#path-1-inside-1)"/>
<mask id="path-3-inside-2" fill="white">
<path d="M10 19.5L30 19.5V20.5L10 20.5V19.5Z"/>
</mask>
<path d="M10 19.5L30 19.5V20.5L10 20.5V19.5Z" fill="white"/>
<path d="M10 19.5L30 19.5V20.5L10 20.5V19.5Z" fill="url(#paint2_linear)"/>
<path d="M10 19.5L10 18.5L9 18.5V19.5H10ZM30 19.5H31V18.5L30 18.5V19.5ZM30 20.5V21.5L31 21.5V20.5H30ZM10 20.5H9V21.5L10 21.5L10 20.5ZM10 20.5L30 20.5V18.5L10 18.5L10 20.5ZM29 19.5V20.5H31V19.5H29ZM30 19.5L10 19.5L10 21.5L30 21.5V19.5ZM11 20.5V19.5H9V20.5H11Z" fill="white" mask="url(#path-3-inside-2)"/>
<path d="M10 19.5L10 18.5L9 18.5V19.5H10ZM30 19.5H31V18.5L30 18.5V19.5ZM30 20.5V21.5L31 21.5V20.5H30ZM10 20.5H9V21.5L10 21.5L10 20.5ZM10 20.5L30 20.5V18.5L10 18.5L10 20.5ZM29 19.5V20.5H31V19.5H29ZM30 19.5L10 19.5L10 21.5L30 21.5V19.5ZM11 20.5V19.5H9V20.5H11Z" fill="url(#paint3_linear)" mask="url(#path-3-inside-2)"/>
<mask id="path-5-inside-3" fill="white">
<path d="M10 13.5L30 13.5V14.5L10 14.5V13.5Z"/>
</mask>
<path d="M10 13.5L30 13.5V14.5L10 14.5V13.5Z" fill="white"/>
<path d="M10 13.5L30 13.5V14.5L10 14.5V13.5Z" fill="url(#paint4_linear)"/>
<path d="M10 13.5L10 12.5L9 12.5V13.5H10ZM30 13.5H31V12.5L30 12.5V13.5ZM30 14.5V15.5L31 15.5V14.5H30ZM10 14.5H9V15.5L10 15.5L10 14.5ZM10 14.5L30 14.5V12.5L10 12.5L10 14.5ZM29 13.5V14.5H31V13.5H29ZM30 13.5L10 13.5L10 15.5L30 15.5V13.5ZM11 14.5V13.5H9V14.5H11Z" fill="white" mask="url(#path-5-inside-3)"/>
<path d="M10 13.5L10 12.5L9 12.5V13.5H10ZM30 13.5H31V12.5L30 12.5V13.5ZM30 14.5V15.5L31 15.5V14.5H30ZM10 14.5H9V15.5L10 15.5L10 14.5ZM10 14.5L30 14.5V12.5L10 12.5L10 14.5ZM29 13.5V14.5H31V13.5H29ZM30 13.5L10 13.5L10 15.5L30 15.5V13.5ZM11 14.5V13.5H9V14.5H11Z" fill="url(#paint5_linear)" mask="url(#path-5-inside-3)"/>
<circle cx="14.7998" cy="14" r="1.5" fill="#010203"/>
<circle cx="14.7998" cy="14" r="1.5" stroke="white"/>
<circle cx="14.7998" cy="14" r="1.5" stroke="url(#paint6_linear)"/>
<circle cx="24.7998" cy="20" r="1.5" fill="#010203"/>
<circle cx="24.7998" cy="20" r="1.5" stroke="white"/>
<circle cx="24.7998" cy="20" r="1.5" stroke="url(#paint7_linear)"/>
<circle cx="18.7998" cy="26" r="1.5" fill="#010203"/>
<circle cx="18.7998" cy="26" r="1.5" stroke="white"/>
<circle cx="18.7998" cy="26" r="1.5" stroke="url(#paint8_linear)"/>
<defs>
<linearGradient id="paint0_linear" x1="20" y1="25.5" x2="20" y2="26.5" gradientUnits="userSpaceOnUse">
<stop stop-color="white"/>
<stop offset="1" stop-color="white" stop-opacity="0"/>
</linearGradient>
<linearGradient id="paint1_linear" x1="20" y1="25.5" x2="20" y2="26.5" gradientUnits="userSpaceOnUse">
<stop stop-color="white"/>
<stop offset="1" stop-color="white" stop-opacity="0"/>
</linearGradient>
<linearGradient id="paint2_linear" x1="20" y1="19.5" x2="20" y2="20.5" gradientUnits="userSpaceOnUse">
<stop stop-color="white"/>
<stop offset="1" stop-color="white" stop-opacity="0"/>
</linearGradient>
<linearGradient id="paint3_linear" x1="20" y1="19.5" x2="20" y2="20.5" gradientUnits="userSpaceOnUse">
<stop stop-color="white"/>
<stop offset="1" stop-color="white" stop-opacity="0"/>
</linearGradient>
<linearGradient id="paint4_linear" x1="20" y1="13.5" x2="20" y2="14.5" gradientUnits="userSpaceOnUse">
<stop stop-color="white"/>
<stop offset="1" stop-color="white" stop-opacity="0"/>
</linearGradient>
<linearGradient id="paint5_linear" x1="20" y1="13.5" x2="20" y2="14.5" gradientUnits="userSpaceOnUse">
<stop stop-color="white"/>
<stop offset="1" stop-color="white" stop-opacity="0"/>
</linearGradient>
<linearGradient id="paint6_linear" x1="14.7998" y1="12" x2="14.7998" y2="16" gradientUnits="userSpaceOnUse">
<stop stop-color="white"/>
<stop offset="1" stop-color="white" stop-opacity="0"/>
</linearGradient>
<linearGradient id="paint7_linear" x1="24.7998" y1="18" x2="24.7998" y2="22" gradientUnits="userSpaceOnUse">
<stop stop-color="white"/>
<stop offset="1" stop-color="white" stop-opacity="0"/>
</linearGradient>
<linearGradient id="paint8_linear" x1="18.7998" y1="24" x2="18.7998" y2="28" gradientUnits="userSpaceOnUse">
<stop stop-color="white"/>
<stop offset="1" stop-color="white" stop-opacity="0"/>
</linearGradient>
</defs>
</svg>
