<svg width="20" height="22" viewBox="0 0 20 22" fill="none" xmlns="http://www.w3.org/2000/svg">
<path fill-rule="evenodd" clip-rule="evenodd" d="M19.5 0H5.5C4.94772 0 4.5 0.447715 4.5 1C4.5 1.55228 4.94771 2 5.5 2H17.5V20H5.5C4.94772 20 4.5 20.4477 4.5 21C4.5 21.5523 4.94771 22 5.5 22H19.5V0Z" fill="white"/>
<path fill-rule="evenodd" clip-rule="evenodd" d="M19.5 0H5.5C4.94772 0 4.5 0.447715 4.5 1C4.5 1.55228 4.94771 2 5.5 2H17.5V20H5.5C4.94772 20 4.5 20.4477 4.5 21C4.5 21.5523 4.94771 22 5.5 22H19.5V0Z" fill="url(#paint0_linear)"/>
<path d="M12.2659 11.6638C12.3797 11.5842 12.3797 11.4158 12.2659 11.3362L7.81469 8.22029C7.68214 8.1275 7.5 8.22233 7.5 8.38413L7.5 14.6159C7.5 14.7777 7.68214 14.8725 7.81469 14.7797L12.2659 11.6638Z" fill="white"/>
<path d="M12.2659 11.6638C12.3797 11.5842 12.3797 11.4158 12.2659 11.3362L7.81469 8.22029C7.68214 8.1275 7.5 8.22233 7.5 8.38413L7.5 14.6159C7.5 14.7777 7.68214 14.8725 7.81469 14.7797L12.2659 11.6638Z" fill="url(#paint1_linear)"/>
<path d="M0.5 10.7C0.5 10.5895 0.589543 10.5 0.7 10.5H10.3C10.4105 10.5 10.5 10.5895 10.5 10.7V12.3C10.5 12.4105 10.4105 12.5 10.3 12.5H0.7C0.589543 12.5 0.5 12.4105 0.5 12.3V10.7Z" fill="white"/>
<path d="M0.5 10.7C0.5 10.5895 0.589543 10.5 0.7 10.5H10.3C10.4105 10.5 10.5 10.5895 10.5 10.7V12.3C10.5 12.4105 10.4105 12.5 10.3 12.5H0.7C0.589543 12.5 0.5 12.4105 0.5 12.3V10.7Z" fill="url(#paint2_linear)"/>
<defs>
<linearGradient id="paint0_linear" x1="12" y1="0" x2="12" y2="22" gradientUnits="userSpaceOnUse">
<stop stop-color="white"/>
<stop offset="1" stop-color="white" stop-opacity="0"/>
</linearGradient>
<linearGradient id="paint1_linear" x1="12.5" y1="11.5" x2="7.5" y2="11.5" gradientUnits="userSpaceOnUse">
<stop stop-color="white"/>
<stop offset="1" stop-color="white" stop-opacity="0"/>
</linearGradient>
<linearGradient id="paint2_linear" x1="5.5" y1="10.5" x2="5.5" y2="12.5" gradientUnits="userSpaceOnUse">
<stop stop-color="white"/>
<stop offset="1" stop-color="white" stop-opacity="0"/>
</linearGradient>
</defs>
</svg>
