<svg width="20" height="16" viewBox="0 0 20 16" fill="none" xmlns="http://www.w3.org/2000/svg">
<mask id="path-1-inside-1" fill="white">
<path d="M0 13.5L20 13.5V14.5L0 14.5V13.5Z"/>
</mask>
<path d="M0 13.5L20 13.5V14.5L0 14.5V13.5Z" fill="#010203"/>
<path d="M0 13.5L1.31134e-07 12.5L-1 12.5V13.5H0ZM20 13.5H21V12.5L20 12.5V13.5ZM20 14.5V15.5L21 15.5V14.5H20ZM0 14.5H-1V15.5L-1.2517e-07 15.5L0 14.5ZM-1.31134e-07 14.5L20 14.5V12.5L1.31134e-07 12.5L-1.31134e-07 14.5ZM19 13.5V14.5H21V13.5H19ZM20 13.5L1.2517e-07 13.5L-1.2517e-07 15.5L20 15.5V13.5ZM1 14.5V13.5H-1V14.5H1Z" fill="#010203" mask="url(#path-1-inside-1)"/>
<mask id="path-3-inside-2" fill="white">
<path d="M0 7.5L20 7.5V8.5L0 8.5V7.5Z"/>
</mask>
<path d="M0 7.5L20 7.5V8.5L0 8.5V7.5Z" fill="#010203"/>
<path d="M0 7.5L1.31134e-07 6.5L-1 6.5V7.5H0ZM20 7.5H21V6.5L20 6.5V7.5ZM20 8.5V9.5L21 9.5V8.5H20ZM0 8.5H-1V9.5L-1.2517e-07 9.5L0 8.5ZM-1.31134e-07 8.5L20 8.5V6.5L1.31134e-07 6.5L-1.31134e-07 8.5ZM19 7.5V8.5H21V7.5H19ZM20 7.5L1.2517e-07 7.5L-1.2517e-07 9.5L20 9.5V7.5ZM1 8.5V7.5H-1V8.5H1Z" fill="#010203" mask="url(#path-3-inside-2)"/>
<mask id="path-5-inside-3" fill="white">
<path d="M0 1.5L20 1.5V2.5L0 2.5V1.5Z"/>
</mask>
<path d="M0 1.5L20 1.5V2.5L0 2.5V1.5Z" fill="#010203"/>
<path d="M0 1.5L1.31134e-07 0.5L-1 0.5V1.5H0ZM20 1.5H21V0.500003L20 0.500003V1.5ZM20 2.5V3.5L21 3.5V2.5H20ZM0 2.5H-1V3.5L-1.2517e-07 3.5L0 2.5ZM-1.31134e-07 2.5L20 2.5V0.500003L1.31134e-07 0.5L-1.31134e-07 2.5ZM19 1.5V2.5H21V1.5H19ZM20 1.5L1.2517e-07 1.5L-1.2517e-07 3.5L20 3.5V1.5ZM1 2.5V1.5H-1V2.5H1Z" fill="#010203" mask="url(#path-5-inside-3)"/>
<circle cx="4.7998" cy="2" r="1.5" fill="white"/>
<circle cx="4.7998" cy="2" r="1.5" fill="url(#paint0_linear)"/>
<circle cx="4.7998" cy="2" r="1.5" stroke="#010203"/>
<circle cx="14.7998" cy="8" r="1.5" fill="white"/>
<circle cx="14.7998" cy="8" r="1.5" fill="url(#paint1_linear)"/>
<circle cx="14.7998" cy="8" r="1.5" stroke="#010203"/>
<circle cx="8.7998" cy="14" r="1.5" fill="white"/>
<circle cx="8.7998" cy="14" r="1.5" fill="url(#paint2_linear)"/>
<circle cx="8.7998" cy="14" r="1.5" stroke="#010203"/>
<defs>
<linearGradient id="paint0_linear" x1="4.7998" y1="0" x2="4.7998" y2="4" gradientUnits="userSpaceOnUse">
<stop stop-color="white"/>
<stop offset="1" stop-color="white" stop-opacity="0"/>
</linearGradient>
<linearGradient id="paint1_linear" x1="14.7998" y1="6" x2="14.7998" y2="10" gradientUnits="userSpaceOnUse">
<stop stop-color="white"/>
<stop offset="1" stop-color="white" stop-opacity="0"/>
</linearGradient>
<linearGradient id="paint2_linear" x1="8.7998" y1="12" x2="8.7998" y2="16" gradientUnits="userSpaceOnUse">
<stop stop-color="white"/>
<stop offset="1" stop-color="white" stop-opacity="0"/>
</linearGradient>
</defs>
</svg>
