<svg width="25" height="25" viewBox="0 0 25 25" fill="none" xmlns="http://www.w3.org/2000/svg">
<path d="M15.3193 10.273C15.3559 10.1265 15.2232 9.99386 15.0768 10.0305L10.6517 11.1368C10.5008 11.1745 10.4488 11.3623 10.5587 11.4722L13.8776 14.791C13.9875 14.901 14.1753 14.8489 14.213 14.6981L15.3193 10.273Z" fill="white"/>
<path d="M15.3193 10.273C15.3559 10.1265 15.2232 9.99386 15.0768 10.0305L10.6517 11.1368C10.5008 11.1745 10.4488 11.3623 10.5587 11.4722L13.8776 14.791C13.9875 14.901 14.1753 14.8489 14.213 14.6981L15.3193 10.273Z" fill="url(#paint0_linear)"/>
<path d="M8.72308 16.869C8.5766 16.9057 8.44392 16.773 8.48054 16.6265L9.58681 12.2014C9.62452 12.0506 9.81234 11.9986 9.92226 12.1085L13.2411 15.4273C13.351 15.5372 13.299 15.7251 13.1482 15.7628L8.72308 16.869Z" fill="white"/>
<path d="M8.72308 16.869C8.5766 16.9057 8.44392 16.773 8.48054 16.6265L9.58681 12.2014C9.62452 12.0506 9.81234 11.9986 9.92226 12.1085L13.2411 15.4273C13.351 15.5372 13.299 15.7251 13.1482 15.7628L8.72308 16.869Z" fill="url(#paint1_linear)"/>
<circle cx="11.9" cy="13" r="10.25" stroke="white" stroke-width="2"/>
<circle cx="11.9" cy="13" r="10.25" stroke="url(#paint2_linear)" stroke-width="2"/>
<defs>
<linearGradient id="paint0_linear" x1="15.4001" y1="9.94964" x2="12.2182" y2="13.1316" gradientUnits="userSpaceOnUse">
<stop stop-color="white"/>
<stop offset="1" stop-color="white" stop-opacity="0"/>
</linearGradient>
<linearGradient id="paint1_linear" x1="8.3997" y1="16.9499" x2="11.5817" y2="13.7679" gradientUnits="userSpaceOnUse">
<stop stop-color="white"/>
<stop offset="1" stop-color="white" stop-opacity="0"/>
</linearGradient>
<linearGradient id="paint2_linear" x1="11.9" y1="1.75" x2="11.9" y2="24.25" gradientUnits="userSpaceOnUse">
<stop stop-color="white"/>
<stop offset="1" stop-color="white" stop-opacity="0"/>
</linearGradient>
</defs>
</svg>
