<svg width="24" height="24" viewBox="0 0 24 24" fill="none" xmlns="http://www.w3.org/2000/svg">
<mask id="mask0" mask-type="alpha" maskUnits="userSpaceOnUse" x="0" y="-1" width="25" height="25">
<rect y="-1" width="25" height="25" fill="white"/>
<rect y="-1" width="25" height="25" fill="url(#paint0_linear)"/>
</mask>
<g mask="url(#mask0)">
<path fill-rule="evenodd" clip-rule="evenodd" d="M9 15C12.3137 15 15 12.3137 15 9C15 5.68629 12.3137 3 9 3C5.68629 3 3 5.68629 3 9C3 12.3137 5.68629 15 9 15ZM9 17C13.4183 17 17 13.4183 17 9C17 4.58172 13.4183 1 9 1C4.58172 1 1 4.58172 1 9C1 13.4183 4.58172 17 9 17Z" fill="#010203"/>
<path d="M13.0911 14.5054C13.013 14.4273 13.013 14.3007 13.0911 14.2226L14.2225 13.0912C14.3006 13.0131 14.4272 13.0131 14.5053 13.0912L22.0007 20.5866C22.0788 20.6647 22.0788 20.7913 22.0007 20.8694L20.8693 22.0008C20.7912 22.0789 20.6646 22.0789 20.5865 22.0008L13.0911 14.5054Z" fill="#010203"/>
</g>
<defs>
<linearGradient id="paint0_linear" x1="12.5" y1="-1" x2="12.5" y2="24" gradientUnits="userSpaceOnUse">
<stop stop-color="white"/>
<stop offset="1" stop-color="white" stop-opacity="0"/>
</linearGradient>
</defs>
</svg>
