<svg width="32" height="32" viewBox="0 0 32 32" fill="none" xmlns="http://www.w3.org/2000/svg">
<path fill-rule="evenodd" clip-rule="evenodd" d="M5.28468 7.76367H26.4143L24.9975 28.3828C24.9542 29.0121 24.4311 29.5005 23.8003 29.5005H7.89874C7.26793 29.5005 6.74481 29.0121 6.70156 28.3828L5.28468 7.76367ZM7.42683 9.76367L8.64565 27.5005H23.0534L24.2722 9.76367H7.42683Z" fill="#EC2D50"/>
<path fill-rule="evenodd" clip-rule="evenodd" d="M10.6167 25.9851L9.40075 11.5153L11.4 11.2796L12.6159 25.7494L10.6167 25.9851Z" fill="#EC2D50"/>
<path fill-rule="evenodd" clip-rule="evenodd" d="M21.3482 25.9667L22.0428 11.4646L20.036 11.297L19.3413 25.7992L21.3482 25.9667Z" fill="#EC2D50"/>
<path fill-rule="evenodd" clip-rule="evenodd" d="M6.38721 7.76331L6.59764 7.13173L25.1024 7.13173L25.3128 7.76331H6.38721ZM4.13897 8.184C3.88009 8.961 4.45845 9.76331 5.27744 9.76331H26.4226C27.2416 9.76331 27.8199 8.96101 27.561 8.184L26.9998 6.49955C26.7277 5.68272 25.9633 5.13173 25.1024 5.13173H6.59764C5.73667 5.13173 4.97232 5.68272 4.70018 6.49955L4.13897 8.184Z" fill="#EC2D50"/>
<path fill-rule="evenodd" clip-rule="evenodd" d="M10.7812 4.5C10.7812 3.39543 11.6767 2.5 12.7812 2.5H18.9187C20.0233 2.5 20.9187 3.39543 20.9187 4.5V6.13158H18.9187V4.5L12.7812 4.5V6.13158H10.7812V4.5Z" fill="#EC2D50"/>
<path fill-rule="evenodd" clip-rule="evenodd" d="M14.85 25.8682V11.3945H16.85V25.8682H14.85Z" fill="#EC2D50"/>
</svg>
