<svg width="40" height="40" viewBox="0 0 40 40" fill="none" xmlns="http://www.w3.org/2000/svg">
<rect width="40" height="40" transform="translate(0 40) rotate(-90)" fill="#010203"/>
<path fill-rule="evenodd" clip-rule="evenodd" d="M12.4656 13.5H27.5344L26.5113 28.8466C26.4868 29.2143 26.1814 29.5 25.8129 29.5H14.1871C13.8186 29.5 13.5132 29.2143 13.4887 28.8466L12.4656 13.5ZM13.5344 14.5L14.4678 28.5H25.5322L26.4656 14.5H13.5344Z" fill="white"/>
<path fill-rule="evenodd" clip-rule="evenodd" d="M12.4656 13.5H27.5344L26.5113 28.8466C26.4868 29.2143 26.1814 29.5 25.8129 29.5H14.1871C13.8186 29.5 13.5132 29.2143 13.4887 28.8466L12.4656 13.5ZM13.5344 14.5L14.4678 28.5H25.5322L26.4656 14.5H13.5344Z" fill="url(#paint0_linear)"/>
<path fill-rule="evenodd" clip-rule="evenodd" d="M16.3783 27.0538L15.4817 16.0567L16.4811 15.9462L17.3776 26.9432L16.3783 27.0538Z" fill="white"/>
<path fill-rule="evenodd" clip-rule="evenodd" d="M16.3783 27.0538L15.4817 16.0567L16.4811 15.9462L17.3776 26.9432L16.3783 27.0538Z" fill="url(#paint1_linear)"/>
<path fill-rule="evenodd" clip-rule="evenodd" d="M23.8155 27.0486L24.3277 16.0269L23.3251 15.9513L22.8129 26.973L23.8155 27.0486Z" fill="white"/>
<path fill-rule="evenodd" clip-rule="evenodd" d="M23.8155 27.0486L24.3277 16.0269L23.3251 15.9513L22.8129 26.973L23.8155 27.0486Z" fill="url(#paint2_linear)"/>
<path fill-rule="evenodd" clip-rule="evenodd" d="M12.6871 13.5L12.8984 12.8462C12.9651 12.6398 13.1573 12.5 13.3742 12.5H26.6258C26.8427 12.5 27.0349 12.6398 27.1016 12.8462L27.3129 13.5H12.6871ZM11.6088 13.5847C11.4626 14.0368 11.7997 14.5 12.2748 14.5H27.7252C28.2003 14.5 28.5374 14.0368 28.3912 13.5847L28.0531 12.5387C27.853 11.9195 27.2765 11.5 26.6258 11.5H13.3742C12.7235 11.5 12.147 11.9195 11.9469 12.5387L11.6088 13.5847Z" fill="white"/>
<path fill-rule="evenodd" clip-rule="evenodd" d="M12.6871 13.5L12.8984 12.8462C12.9651 12.6398 13.1573 12.5 13.3742 12.5H26.6258C26.8427 12.5 27.0349 12.6398 27.1016 12.8462L27.3129 13.5H12.6871ZM11.6088 13.5847C11.4626 14.0368 11.7997 14.5 12.2748 14.5H27.7252C28.2003 14.5 28.5374 14.0368 28.3912 13.5847L28.0531 12.5387C27.853 11.9195 27.2765 11.5 26.6258 11.5H13.3742C12.7235 11.5 12.147 11.9195 11.9469 12.5387L11.6088 13.5847Z" fill="url(#paint3_linear)"/>
<path fill-rule="evenodd" clip-rule="evenodd" d="M18 10.5C17.7239 10.5 17.5 10.7239 17.5 11V12H16.5V11C16.5 10.1716 17.1716 9.5 18 9.5H22C22.8284 9.5 23.5 10.1716 23.5 11V12H22.5V11C22.5 10.7239 22.2761 10.5 22 10.5H18Z" fill="white"/>
<path fill-rule="evenodd" clip-rule="evenodd" d="M18 10.5C17.7239 10.5 17.5 10.7239 17.5 11V12H16.5V11C16.5 10.1716 17.1716 9.5 18 9.5H22C22.8284 9.5 23.5 10.1716 23.5 11V12H22.5V11C22.5 10.7239 22.2761 10.5 22 10.5H18Z" fill="url(#paint4_linear)"/>
<path fill-rule="evenodd" clip-rule="evenodd" d="M19.5 27V16H20.5V27H19.5Z" fill="white"/>
<path fill-rule="evenodd" clip-rule="evenodd" d="M19.5 27V16H20.5V27H19.5Z" fill="url(#paint5_linear)"/>
<defs>
<linearGradient id="paint0_linear" x1="20" y1="13.5" x2="20" y2="29.5" gradientUnits="userSpaceOnUse">
<stop stop-color="white"/>
<stop offset="1" stop-color="white" stop-opacity="0"/>
</linearGradient>
<linearGradient id="paint1_linear" x1="16.9869" y1="15.9815" x2="16.2135" y2="27.0422" gradientUnits="userSpaceOnUse">
<stop stop-color="white"/>
<stop offset="1" stop-color="white" stop-opacity="0"/>
</linearGradient>
<linearGradient id="paint2_linear" x1="22.8209" y1="16.0043" x2="23.9798" y2="27.0313" gradientUnits="userSpaceOnUse">
<stop stop-color="white"/>
<stop offset="1" stop-color="white" stop-opacity="0"/>
</linearGradient>
<linearGradient id="paint3_linear" x1="20" y1="14.5" x2="20" y2="11.5" gradientUnits="userSpaceOnUse">
<stop stop-color="white"/>
<stop offset="1" stop-color="white" stop-opacity="0"/>
</linearGradient>
<linearGradient id="paint4_linear" x1="20" y1="9.5" x2="20" y2="12" gradientUnits="userSpaceOnUse">
<stop stop-color="white"/>
<stop offset="1" stop-color="white" stop-opacity="0"/>
</linearGradient>
<linearGradient id="paint5_linear" x1="20" y1="16" x2="20" y2="27" gradientUnits="userSpaceOnUse">
<stop stop-color="white"/>
<stop offset="1" stop-color="white" stop-opacity="0"/>
</linearGradient>
</defs>
</svg>
