<svg width="40" height="40" viewBox="0 0 40 40" fill="none" xmlns="http://www.w3.org/2000/svg">
<rect width="40" height="40" fill="#010203"/>
<path d="M10 25.5L30 25.5V26.5L10 26.5V25.5Z" fill="white"/>
<path d="M10 25.5L30 25.5V26.5L10 26.5V25.5Z" fill="url(#paint0_linear)"/>
<path fill-rule="evenodd" clip-rule="evenodd" d="M30 25.5V26.5L10 26.5V25.5L30 25.5Z" fill="white"/>
<path fill-rule="evenodd" clip-rule="evenodd" d="M30 25.5V26.5L10 26.5V25.5L30 25.5Z" fill="url(#paint1_linear)"/>
<path d="M10 19.5L30 19.5V20.5L10 20.5V19.5Z" fill="white"/>
<path d="M10 19.5L30 19.5V20.5L10 20.5V19.5Z" fill="url(#paint2_linear)"/>
<path fill-rule="evenodd" clip-rule="evenodd" d="M30 19.5V20.5L10 20.5V19.5L30 19.5Z" fill="white"/>
<path fill-rule="evenodd" clip-rule="evenodd" d="M30 19.5V20.5L10 20.5V19.5L30 19.5Z" fill="url(#paint3_linear)"/>
<path d="M10 13.5L30 13.5V14.5L10 14.5V13.5Z" fill="white"/>
<path d="M10 13.5L30 13.5V14.5L10 14.5V13.5Z" fill="url(#paint4_linear)"/>
<path fill-rule="evenodd" clip-rule="evenodd" d="M30 13.5V14.5L10 14.5V13.5L30 13.5Z" fill="white"/>
<path fill-rule="evenodd" clip-rule="evenodd" d="M30 13.5V14.5L10 14.5V13.5L30 13.5Z" fill="url(#paint5_linear)"/>
<path d="M16.7998 14C16.7998 15.1046 15.9044 16 14.7998 16C13.6952 16 12.7998 15.1046 12.7998 14C12.7998 12.8954 13.6952 12 14.7998 12C15.9044 12 16.7998 12.8954 16.7998 14Z" fill="#010203"/>
<path fill-rule="evenodd" clip-rule="evenodd" d="M14.7998 15C15.3521 15 15.7998 14.5523 15.7998 14C15.7998 13.4477 15.3521 13 14.7998 13C14.2475 13 13.7998 13.4477 13.7998 14C13.7998 14.5523 14.2475 15 14.7998 15ZM14.7998 16C15.9044 16 16.7998 15.1046 16.7998 14C16.7998 12.8954 15.9044 12 14.7998 12C13.6952 12 12.7998 12.8954 12.7998 14C12.7998 15.1046 13.6952 16 14.7998 16Z" fill="white"/>
<path fill-rule="evenodd" clip-rule="evenodd" d="M14.7998 15C15.3521 15 15.7998 14.5523 15.7998 14C15.7998 13.4477 15.3521 13 14.7998 13C14.2475 13 13.7998 13.4477 13.7998 14C13.7998 14.5523 14.2475 15 14.7998 15ZM14.7998 16C15.9044 16 16.7998 15.1046 16.7998 14C16.7998 12.8954 15.9044 12 14.7998 12C13.6952 12 12.7998 12.8954 12.7998 14C12.7998 15.1046 13.6952 16 14.7998 16Z" fill="url(#paint6_linear)"/>
<path d="M26.7998 20C26.7998 21.1046 25.9044 22 24.7998 22C23.6952 22 22.7998 21.1046 22.7998 20C22.7998 18.8954 23.6952 18 24.7998 18C25.9044 18 26.7998 18.8954 26.7998 20Z" fill="#010203"/>
<path fill-rule="evenodd" clip-rule="evenodd" d="M24.7998 21C25.3521 21 25.7998 20.5523 25.7998 20C25.7998 19.4477 25.3521 19 24.7998 19C24.2475 19 23.7998 19.4477 23.7998 20C23.7998 20.5523 24.2475 21 24.7998 21ZM24.7998 22C25.9044 22 26.7998 21.1046 26.7998 20C26.7998 18.8954 25.9044 18 24.7998 18C23.6952 18 22.7998 18.8954 22.7998 20C22.7998 21.1046 23.6952 22 24.7998 22Z" fill="white"/>
<path fill-rule="evenodd" clip-rule="evenodd" d="M24.7998 21C25.3521 21 25.7998 20.5523 25.7998 20C25.7998 19.4477 25.3521 19 24.7998 19C24.2475 19 23.7998 19.4477 23.7998 20C23.7998 20.5523 24.2475 21 24.7998 21ZM24.7998 22C25.9044 22 26.7998 21.1046 26.7998 20C26.7998 18.8954 25.9044 18 24.7998 18C23.6952 18 22.7998 18.8954 22.7998 20C22.7998 21.1046 23.6952 22 24.7998 22Z" fill="url(#paint7_linear)"/>
<path d="M20.7998 26C20.7998 27.1046 19.9044 28 18.7998 28C17.6952 28 16.7998 27.1046 16.7998 26C16.7998 24.8954 17.6952 24 18.7998 24C19.9044 24 20.7998 24.8954 20.7998 26Z" fill="#010203"/>
<path fill-rule="evenodd" clip-rule="evenodd" d="M18.7998 27C19.3521 27 19.7998 26.5523 19.7998 26C19.7998 25.4477 19.3521 25 18.7998 25C18.2475 25 17.7998 25.4477 17.7998 26C17.7998 26.5523 18.2475 27 18.7998 27ZM18.7998 28C19.9044 28 20.7998 27.1046 20.7998 26C20.7998 24.8954 19.9044 24 18.7998 24C17.6952 24 16.7998 24.8954 16.7998 26C16.7998 27.1046 17.6952 28 18.7998 28Z" fill="white"/>
<path fill-rule="evenodd" clip-rule="evenodd" d="M18.7998 27C19.3521 27 19.7998 26.5523 19.7998 26C19.7998 25.4477 19.3521 25 18.7998 25C18.2475 25 17.7998 25.4477 17.7998 26C17.7998 26.5523 18.2475 27 18.7998 27ZM18.7998 28C19.9044 28 20.7998 27.1046 20.7998 26C20.7998 24.8954 19.9044 24 18.7998 24C17.6952 24 16.7998 24.8954 16.7998 26C16.7998 27.1046 17.6952 28 18.7998 28Z" fill="url(#paint8_linear)"/>
<defs>
<linearGradient id="paint0_linear" x1="20" y1="25.5" x2="20" y2="26.5" gradientUnits="userSpaceOnUse">
<stop stop-color="white"/>
<stop offset="1" stop-color="white" stop-opacity="0"/>
</linearGradient>
<linearGradient id="paint1_linear" x1="20" y1="25.5" x2="20" y2="26.5" gradientUnits="userSpaceOnUse">
<stop stop-color="white"/>
<stop offset="1" stop-color="white" stop-opacity="0"/>
</linearGradient>
<linearGradient id="paint2_linear" x1="20" y1="19.5" x2="20" y2="20.5" gradientUnits="userSpaceOnUse">
<stop stop-color="white"/>
<stop offset="1" stop-color="white" stop-opacity="0"/>
</linearGradient>
<linearGradient id="paint3_linear" x1="20" y1="19.5" x2="20" y2="20.5" gradientUnits="userSpaceOnUse">
<stop stop-color="white"/>
<stop offset="1" stop-color="white" stop-opacity="0"/>
</linearGradient>
<linearGradient id="paint4_linear" x1="20" y1="13.5" x2="20" y2="14.5" gradientUnits="userSpaceOnUse">
<stop stop-color="white"/>
<stop offset="1" stop-color="white" stop-opacity="0"/>
</linearGradient>
<linearGradient id="paint5_linear" x1="20" y1="13.5" x2="20" y2="14.5" gradientUnits="userSpaceOnUse">
<stop stop-color="white"/>
<stop offset="1" stop-color="white" stop-opacity="0"/>
</linearGradient>
<linearGradient id="paint6_linear" x1="14.7998" y1="12" x2="14.7998" y2="16" gradientUnits="userSpaceOnUse">
<stop stop-color="white"/>
<stop offset="1" stop-color="white" stop-opacity="0"/>
</linearGradient>
<linearGradient id="paint7_linear" x1="24.7998" y1="18" x2="24.7998" y2="22" gradientUnits="userSpaceOnUse">
<stop stop-color="white"/>
<stop offset="1" stop-color="white" stop-opacity="0"/>
</linearGradient>
<linearGradient id="paint8_linear" x1="18.7998" y1="24" x2="18.7998" y2="28" gradientUnits="userSpaceOnUse">
<stop stop-color="white"/>
<stop offset="1" stop-color="white" stop-opacity="0"/>
</linearGradient>
</defs>
</svg>
