<svg width="40" height="40" viewBox="0 0 40 40" fill="none" xmlns="http://www.w3.org/2000/svg">
<circle cx="20" cy="20" r="19" stroke="#010203" stroke-width="2"/>
<path fill-rule="evenodd" clip-rule="evenodd" d="M17 13C16.4477 13 16 13.4477 16 14V16H14C13.4477 16 13 16.4477 13 17V25C13 25.5523 13.4477 26 14 26H22C22.5523 26 23 25.5523 23 25V23H25C25.5523 23 26 22.5523 26 22V14C26 13.4477 25.5523 13 25 13H17ZM16 17.5V22C16 22.5523 16.4477 23 17 23H21.5V24.5H14.5V17.5H16Z" fill="white"/>
<path fill-rule="evenodd" clip-rule="evenodd" d="M17 13C16.4477 13 16 13.4477 16 14V16H14C13.4477 16 13 16.4477 13 17V25C13 25.5523 13.4477 26 14 26H22C22.5523 26 23 25.5523 23 25V23H25C25.5523 23 26 22.5523 26 22V14C26 13.4477 25.5523 13 25 13H17ZM16 17.5V22C16 22.5523 16.4477 23 17 23H21.5V24.5H14.5V17.5H16Z" fill="url(#paint0_linear)"/>
<path fill-rule="evenodd" clip-rule="evenodd" d="M17.5 21.5H24.5V14.5H17.5V21.5ZM16 14C16 13.4477 16.4477 13 17 13H25C25.5523 13 26 13.4477 26 14V22C26 22.5523 25.5523 23 25 23H23V25C23 25.5523 22.5523 26 22 26H14C13.4477 26 13 25.5523 13 25V17C13 16.4477 13.4477 16 14 16H16V14ZM16 17.5H14.5V24.5H21.5V23H17C16.4477 23 16 22.5523 16 22V17.5Z" fill="#010203"/>
<defs>
<linearGradient id="paint0_linear" x1="19.5" y1="13" x2="19.5" y2="26" gradientUnits="userSpaceOnUse">
<stop stop-color="white"/>
<stop offset="1" stop-color="white" stop-opacity="0"/>
</linearGradient>
</defs>
</svg>
