<svg width="24" height="24" viewBox="0 0 24 24" fill="none" xmlns="http://www.w3.org/2000/svg">
<path d="M15.3193 9.27303C15.3559 9.12656 15.2232 8.99388 15.0768 9.0305L10.6517 10.1368C10.5009 10.1745 10.4488 10.3623 10.5588 10.4722L13.8776 13.791C13.9875 13.901 14.1753 13.8489 14.213 13.6981L15.3193 9.27303Z" fill="white"/>
<path d="M15.3193 9.27303C15.3559 9.12656 15.2232 8.99388 15.0768 9.0305L10.6517 10.1368C10.5009 10.1745 10.4488 10.3623 10.5588 10.4722L13.8776 13.791C13.9875 13.901 14.1753 13.8489 14.213 13.6981L15.3193 9.27303Z" fill="url(#paint0_linear)"/>
<path d="M8.72308 15.869C8.57661 15.9057 8.44393 15.773 8.48055 15.6265L9.58682 11.2014C9.62453 11.0506 9.81235 10.9986 9.92227 11.1085L13.2411 14.4273C13.351 14.5373 13.299 14.7251 13.1482 14.7628L8.72308 15.869Z" fill="white"/>
<path d="M8.72308 15.869C8.57661 15.9057 8.44393 15.773 8.48055 15.6265L9.58682 11.2014C9.62453 11.0506 9.81235 10.9986 9.92227 11.1085L13.2411 14.4273C13.351 14.5373 13.299 14.7251 13.1482 14.7628L8.72308 15.869Z" fill="url(#paint1_linear)"/>
<path fill-rule="evenodd" clip-rule="evenodd" d="M11.9 21.25C17.0086 21.25 21.15 17.1086 21.15 12C21.15 6.89137 17.0086 2.75 11.9 2.75C6.79137 2.75 2.65 6.89137 2.65 12C2.65 17.1086 6.79137 21.25 11.9 21.25ZM11.9 23.25C18.1132 23.25 23.15 18.2132 23.15 12C23.15 5.7868 18.1132 0.75 11.9 0.75C5.6868 0.75 0.650002 5.7868 0.650002 12C0.650002 18.2132 5.6868 23.25 11.9 23.25Z" fill="white"/>
<path fill-rule="evenodd" clip-rule="evenodd" d="M11.9 21.25C17.0086 21.25 21.15 17.1086 21.15 12C21.15 6.89137 17.0086 2.75 11.9 2.75C6.79137 2.75 2.65 6.89137 2.65 12C2.65 17.1086 6.79137 21.25 11.9 21.25ZM11.9 23.25C18.1132 23.25 23.15 18.2132 23.15 12C23.15 5.7868 18.1132 0.75 11.9 0.75C5.6868 0.75 0.650002 5.7868 0.650002 12C0.650002 18.2132 5.6868 23.25 11.9 23.25Z" fill="url(#paint2_linear)"/>
<defs>
<linearGradient id="paint0_linear" x1="15.2667" y1="9.0831" x2="12.2182" y2="12.1316" gradientUnits="userSpaceOnUse">
<stop stop-color="white"/>
<stop offset="1" stop-color="white" stop-opacity="0"/>
</linearGradient>
<linearGradient id="paint1_linear" x1="8.53316" y1="15.8164" x2="11.5817" y2="12.7679" gradientUnits="userSpaceOnUse">
<stop stop-color="white"/>
<stop offset="1" stop-color="white" stop-opacity="0"/>
</linearGradient>
<linearGradient id="paint2_linear" x1="11.9" y1="0.75" x2="11.9" y2="23.25" gradientUnits="userSpaceOnUse">
<stop stop-color="white"/>
<stop offset="1" stop-color="white" stop-opacity="0"/>
</linearGradient>
</defs>
</svg>
