<svg width="24" height="24" viewBox="0 0 24 24" fill="none" xmlns="http://www.w3.org/2000/svg">
<mask id="mask0" mask-type="alpha" maskUnits="userSpaceOnUse" x="0" y="-1" width="25" height="25">
<rect y="-1" width="25" height="25" fill="white"/>
<rect y="-1" width="25" height="25" fill="url(#paint0_linear)"/>
</mask>
<g mask="url(#mask0)">
<path d="M17.666 9.32323C17.8079 9.39834 17.8079 9.60165 17.666 9.67677L9.29358 14.1078C9.16038 14.1783 9.00002 14.0817 9.00002 13.931L9.00002 5.06899C9.00002 4.91828 9.16038 4.82172 9.29358 4.89222L17.666 9.32323Z" fill="#010203"/>
<path d="M8 3.2C8 3.08954 8.08954 3 8.2 3H8.8C8.91046 3 9 3.08954 9 3.2V20.8C9 20.9105 8.91046 21 8.8 21H8.2C8.08954 21 8 20.9105 8 20.8V3.2Z" fill="#010203"/>
</g>
<defs>
<linearGradient id="paint0_linear" x1="12.5" y1="-1" x2="12.5" y2="24" gradientUnits="userSpaceOnUse">
<stop stop-color="white"/>
<stop offset="1" stop-color="white" stop-opacity="0"/>
</linearGradient>
</defs>
</svg>
