<svg width="24" height="24" viewBox="0 0 24 24" fill="none" xmlns="http://www.w3.org/2000/svg">
<path d="M11.8169 4.10793C11.8983 3.96378 12.1017 3.96378 12.1831 4.10792L20.9714 19.6755C21.0527 19.8196 20.951 19.9998 20.7883 19.9998L3.21173 19.9998C3.04898 19.9998 2.94727 19.8196 3.02864 19.6755L11.8169 4.10793Z" fill="#010203"/>
<path d="M11.5841 15.6003C11.5841 15.7108 11.6736 15.8003 11.7841 15.8003H12.2755C12.386 15.8003 12.4755 15.7108 12.4755 15.6003V11.1998C12.4755 11.0894 12.386 10.9998 12.2755 10.9998H11.7841C11.6736 10.9998 11.5841 11.0894 11.5841 11.1998V15.6003ZM12.0298 17.7234C12.029 17.7227 12.0296 17.7214 12.0307 17.7214C12.201 17.7206 12.3465 17.6579 12.4713 17.5372C12.5969 17.4158 12.6597 17.2735 12.6597 17.1061C12.6597 16.9387 12.5969 16.7964 12.4755 16.675C12.3541 16.5537 12.2077 16.4951 12.0361 16.4951C11.8645 16.4951 11.7138 16.5537 11.5882 16.675C11.4627 16.7964 11.3999 16.9387 11.3999 17.1061C11.3999 17.2735 11.4627 17.42 11.5841 17.5414C11.7047 17.6621 11.8544 17.7248 12.0289 17.7255C12.03 17.7255 12.0306 17.7242 12.0298 17.7234Z" fill="white"/>
<path d="M11.5841 15.6003C11.5841 15.7108 11.6736 15.8003 11.7841 15.8003H12.2755C12.386 15.8003 12.4755 15.7108 12.4755 15.6003V11.1998C12.4755 11.0894 12.386 10.9998 12.2755 10.9998H11.7841C11.6736 10.9998 11.5841 11.0894 11.5841 11.1998V15.6003ZM12.0298 17.7234C12.029 17.7227 12.0296 17.7214 12.0307 17.7214C12.201 17.7206 12.3465 17.6579 12.4713 17.5372C12.5969 17.4158 12.6597 17.2735 12.6597 17.1061C12.6597 16.9387 12.5969 16.7964 12.4755 16.675C12.3541 16.5537 12.2077 16.4951 12.0361 16.4951C11.8645 16.4951 11.7138 16.5537 11.5882 16.675C11.4627 16.7964 11.3999 16.9387 11.3999 17.1061C11.3999 17.2735 11.4627 17.42 11.5841 17.5414C11.7047 17.6621 11.8544 17.7248 12.0289 17.7255C12.03 17.7255 12.0306 17.7242 12.0298 17.7234Z" fill="url(#paint0_linear)"/>
<defs>
<linearGradient id="paint0_linear" x1="12.0298" y1="10.9998" x2="12.0298" y2="17.7255" gradientUnits="userSpaceOnUse">
<stop stop-color="white"/>
<stop offset="1" stop-color="white" stop-opacity="0"/>
</linearGradient>
</defs>
</svg>
