<svg width="40" height="40" viewBox="0 0 40 40" fill="none" xmlns="http://www.w3.org/2000/svg">
<rect width="40" height="40" transform="translate(0 40) rotate(-90)" fill="#010203"/>
<path fill-rule="evenodd" clip-rule="evenodd" d="M28.8532 19.4158L22.6154 11.8134V17.4987L22.1664 17.5447C19.9096 17.7764 17.358 18.4686 15.3819 19.9896C13.6996 21.2845 12.4061 23.2003 12.0799 26.0304C12.5736 25.5122 13.2466 24.8713 14.0796 24.2301C15.9758 22.7705 18.7349 21.2842 22.1154 21.2842H22.6154V27.0182L28.8532 19.4158ZM11.9035 27.7637L11 29.0001V27.4684C11 23.5251 12.571 20.8913 14.7719 19.1972C16.8129 17.6262 19.3618 16.8873 21.6154 16.6015V10.9748C21.6154 10.3175 22.4396 10.0226 22.8565 10.5308L29.7824 18.9718C29.9942 19.2299 29.9942 19.6017 29.7824 19.8598L22.8565 28.3008C22.4396 28.8089 21.6154 28.5141 21.6154 27.8567V22.2961C18.7582 22.4324 16.3877 23.7155 14.6896 25.0225C13.7938 25.7121 13.0934 26.4021 12.6179 26.9188C12.3804 27.1769 12.1996 27.3911 12.0793 27.5393C12.0191 27.6134 11.9741 27.671 11.9446 27.7093C11.94 27.7154 11.9357 27.7209 11.9318 27.726C11.9235 27.737 11.917 27.7456 11.9123 27.7519L11.905 27.7617L11.9035 27.7637Z" fill="white"/>
<path fill-rule="evenodd" clip-rule="evenodd" d="M28.8532 19.4158L22.6154 11.8134V17.4987L22.1664 17.5447C19.9096 17.7764 17.358 18.4686 15.3819 19.9896C13.6996 21.2845 12.4061 23.2003 12.0799 26.0304C12.5736 25.5122 13.2466 24.8713 14.0796 24.2301C15.9758 22.7705 18.7349 21.2842 22.1154 21.2842H22.6154V27.0182L28.8532 19.4158ZM11.9035 27.7637L11 29.0001V27.4684C11 23.5251 12.571 20.8913 14.7719 19.1972C16.8129 17.6262 19.3618 16.8873 21.6154 16.6015V10.9748C21.6154 10.3175 22.4396 10.0226 22.8565 10.5308L29.7824 18.9718C29.9942 19.2299 29.9942 19.6017 29.7824 19.8598L22.8565 28.3008C22.4396 28.8089 21.6154 28.5141 21.6154 27.8567V22.2961C18.7582 22.4324 16.3877 23.7155 14.6896 25.0225C13.7938 25.7121 13.0934 26.4021 12.6179 26.9188C12.3804 27.1769 12.1996 27.3911 12.0793 27.5393C12.0191 27.6134 11.9741 27.671 11.9446 27.7093C11.94 27.7154 11.9357 27.7209 11.9318 27.726C11.9235 27.737 11.917 27.7456 11.9123 27.7519L11.905 27.7617L11.9035 27.7637Z" fill="url(#paint0_linear)"/>
<defs>
<linearGradient id="paint0_linear" x1="29.9413" y1="19.6367" x2="11" y2="19.6367" gradientUnits="userSpaceOnUse">
<stop stop-color="white"/>
<stop offset="1" stop-color="white" stop-opacity="0"/>
</linearGradient>
</defs>
</svg>
