<svg width="20" height="20" viewBox="0 0 20 20" fill="none" xmlns="http://www.w3.org/2000/svg">
<rect width="20" height="20" fill="#F2F2F2"/>
<path d="M11 7C11 7.55228 10.5523 8 10 8C9.44772 8 9 7.55228 9 7C9 6.44772 9.44772 6 10 6C10.5523 6 11 6.44772 11 7Z" fill="#010203"/>
<path d="M11 10C11 10.5523 10.5523 11 10 11C9.44772 11 9 10.5523 9 10C9 9.44772 9.44772 9 10 9C10.5523 9 11 9.44772 11 10Z" fill="#010203"/>
<path d="M11 13C11 13.5523 10.5523 14 10 14C9.44772 14 9 13.5523 9 13C9 12.4477 9.44772 12 10 12C10.5523 12 11 12.4477 11 13Z" fill="#010203"/>
</svg>
