<svg width="24" height="24" viewBox="0 0 24 24" fill="none" xmlns="http://www.w3.org/2000/svg">
<path fill-rule="evenodd" clip-rule="evenodd" d="M21.5 1H7.5C6.94772 1 6.5 1.44772 6.5 2C6.5 2.55228 6.94771 3 7.5 3H19.5V21H7.5C6.94772 21 6.5 21.4477 6.5 22C6.5 22.5523 6.94771 23 7.5 23H21.5V1Z" fill="white"/>
<path fill-rule="evenodd" clip-rule="evenodd" d="M21.5 1H7.5C6.94772 1 6.5 1.44772 6.5 2C6.5 2.55228 6.94771 3 7.5 3H19.5V21H7.5C6.94772 21 6.5 21.4477 6.5 22C6.5 22.5523 6.94771 23 7.5 23H21.5V1Z" fill="url(#paint0_linear)"/>
<path d="M14.2659 12.6639C14.3797 12.5842 14.3797 12.4158 14.2659 12.3362L9.81469 9.22029C9.68214 9.1275 9.5 9.22233 9.5 9.38414L9.5 15.6159C9.5 15.7777 9.68214 15.8725 9.81469 15.7797L14.2659 12.6639Z" fill="white"/>
<path d="M14.2659 12.6639C14.3797 12.5842 14.3797 12.4158 14.2659 12.3362L9.81469 9.22029C9.68214 9.1275 9.5 9.22233 9.5 9.38414L9.5 15.6159C9.5 15.7777 9.68214 15.8725 9.81469 15.7797L14.2659 12.6639Z" fill="url(#paint1_linear)"/>
<path d="M2.5 11.7C2.5 11.5895 2.58954 11.5 2.7 11.5H12.3C12.4105 11.5 12.5 11.5895 12.5 11.7V13.3C12.5 13.4105 12.4105 13.5 12.3 13.5H2.7C2.58954 13.5 2.5 13.4105 2.5 13.3V11.7Z" fill="white"/>
<path d="M2.5 11.7C2.5 11.5895 2.58954 11.5 2.7 11.5H12.3C12.4105 11.5 12.5 11.5895 12.5 11.7V13.3C12.5 13.4105 12.4105 13.5 12.3 13.5H2.7C2.58954 13.5 2.5 13.4105 2.5 13.3V11.7Z" fill="url(#paint2_linear)"/>
<defs>
<linearGradient id="paint0_linear" x1="14" y1="1" x2="14" y2="23" gradientUnits="userSpaceOnUse">
<stop stop-color="white"/>
<stop offset="1" stop-color="white" stop-opacity="0"/>
</linearGradient>
<linearGradient id="paint1_linear" x1="14.3512" y1="12.5" x2="9.5" y2="12.5" gradientUnits="userSpaceOnUse">
<stop stop-color="white"/>
<stop offset="1" stop-color="white" stop-opacity="0"/>
</linearGradient>
<linearGradient id="paint2_linear" x1="7.5" y1="11.5" x2="7.5" y2="13.5" gradientUnits="userSpaceOnUse">
<stop stop-color="white"/>
<stop offset="1" stop-color="white" stop-opacity="0"/>
</linearGradient>
</defs>
</svg>
